<svg xmlns="http://www.w3.org/2000/svg" data-name="Layer 3" viewBox="0 0 32 32" id="check"><line x1="14" x2="25" y1="9" y2="9" fill="none" stroke="#0832ff" stroke-linecap="round" stroke-linejoin="round" stroke-width="2"></line><path fill="none" stroke="#0832ff" stroke-linecap="round" stroke-linejoin="round" d="M10,8.94A2.08,2.08,0,0,1,8,11,2.08,2.08,0,0,1,6,8.94a2,2,0,0,1,4,0Z"></path><path fill="#0832ff" d="M10,8.94A2.08,2.08,0,0,1,8,11,2.08,2.08,0,0,1,6,8.94a2,2,0,0,1,4,0Z"></path><line x1="14" x2="25" y1="16" y2="16" fill="none" stroke="#0832ff" stroke-linecap="round" stroke-linejoin="round" stroke-width="2"></line><path fill="none" stroke="#0832ff" stroke-linecap="round" stroke-linejoin="round" d="M10,15.94A2.08,2.08,0,0,1,8,18a2.08,2.08,0,0,1-2-2.06,2,2,0,0,1,4,0Z"></path><line x1="14" x2="25" y1="23" y2="23" fill="none" stroke="#0832ff" stroke-linecap="round" stroke-linejoin="round" stroke-width="2"></line><path fill="none" stroke="#0832ff" stroke-linecap="round" stroke-linejoin="round" d="M10,22.94A2.08,2.08,0,0,1,8,25a2.08,2.08,0,0,1-2-2.06,2,2,0,0,1,4,0Z"></path></svg>