<svg xmlns="http://www.w3.org/2000/svg" width="128" height="128" fill="none" viewBox="0 0 128 128" id="shopping-list"><path fill="#FFD84E" stroke="#000" stroke-width="5" d="M34.147 27.5091C34.2225 26.6335 34.9096 25.9351 35.7839 25.8453L37.4921 25.67C54.7852 23.8946 72.2147 23.8946 89.5079 25.67L91.2161 25.8453C92.0904 25.9351 92.7775 26.6335 92.853 27.5091C94.9471 51.7913 94.9471 76.2087 92.853 100.491C92.7775 101.367 92.0904 102.065 91.2161 102.155L89.5079 102.33C72.2147 104.105 54.7853 104.105 37.4921 102.33L35.7839 102.155C34.9096 102.065 34.2225 101.367 34.147 100.491C32.0529 76.2087 32.0529 51.7913 34.147 27.5091Z"></path><path stroke="#000" stroke-linecap="round" stroke-width="5" d="M43.5 45V45C57.1343 46.3302 70.8657 46.3302 84.5 45V45M43.5 64.5V64.5C57.1343 65.8302 70.8657 65.8302 84.5 64.5V64.5M43.5 82.5V82.5C57.1343 83.8302 70.8657 83.8302 84.5 82.5V82.5"></path><path fill="#000" stroke="#FFD84E" stroke-linecap="round" stroke-linejoin="round" stroke-width="3" d="M57.2842 63.3719C58.8704 61.8343 58.9096 59.3019 57.3719 57.7158 55.8343 56.1296 53.3019 56.0904 51.7158 57.6281L47.2795 61.9289 46.2842 60.964C44.6981 59.4263 42.1657 59.4656 40.6281 61.0517 39.0904 62.6379 39.1296 65.1702 40.7158 66.7079L44.4953 70.3719C46.0467 71.876 48.5123 71.876 50.0637 70.3719L57.2842 63.3719zM57.2842 81.3719C58.8704 79.8343 58.9096 77.3019 57.3719 75.7158 55.8343 74.1296 53.3019 74.0904 51.7158 75.6281L47.2795 79.9289 46.2842 78.964C44.6981 77.4263 42.1657 77.4656 40.6281 79.0517 39.0904 80.6379 39.1296 83.1702 40.7158 84.7079L44.4953 88.3719C46.0467 89.876 48.5123 89.876 50.0637 88.3719L57.2842 81.3719zM57.2842 45.3719C58.8704 43.8343 58.9096 41.3019 57.3719 39.7158 55.8343 38.1296 53.3019 38.0904 51.7158 39.6281L47.2795 43.9289 46.2842 42.964C44.6981 41.4263 42.1657 41.4656 40.6281 43.0517 39.0904 44.6379 39.1296 47.1702 40.7158 48.7079L44.4953 52.3719C46.0467 53.876 48.5123 53.876 50.0637 52.3719L57.2842 45.3719z"></path></svg>